<?xml version="1.0" encoding="UTF-8" standalone="no"?>
<!-- Generator: Adobe Illustrator 19.0.0, SVG Export Plug-In . SVG Version: 6.00 Build 0)  -->

<svg
   xmlns:dc="http://purl.org/dc/elements/1.1/"
   xmlns:cc="http://creativecommons.org/ns#"
   xmlns:rdf="http://www.w3.org/1999/02/22-rdf-syntax-ns#"
   xmlns:svg="http://www.w3.org/2000/svg"
   xmlns="http://www.w3.org/2000/svg"
   xmlns:sodipodi="http://sodipodi.sourceforge.net/DTD/sodipodi-0.dtd"
   xmlns:inkscape="http://www.inkscape.org/namespaces/inkscape"
   version="1.1"
   id="Capa_1"
   x="0px"
   y="0px"
   viewBox="0 0 40 40"
   xml:space="preserve"
   sodipodi:docname="backend-logo.svg"
   width="40"
   height="40"
   inkscape:version="0.92.1 r15371"><metadata
     id="metadata61"><rdf:RDF><cc:Work
         rdf:about=""><dc:format>image/svg+xml</dc:format><dc:type
           rdf:resource="http://purl.org/dc/dcmitype/StillImage" /><dc:title></dc:title></cc:Work></rdf:RDF></metadata><defs
     id="defs59" /><sodipodi:namedview
     pagecolor="#ffffff"
     bordercolor="#666666"
     borderopacity="1"
     objecttolerance="10"
     gridtolerance="10"
     guidetolerance="10"
     inkscape:pageopacity="0"
     inkscape:pageshadow="2"
     inkscape:window-width="1366"
     inkscape:window-height="705"
     id="namedview57"
     showgrid="false"
     units="px"
     inkscape:zoom="5.2149125"
     inkscape:cx="48.2689"
     inkscape:cy="32.397143"
     inkscape:window-x="-8"
     inkscape:window-y="760"
     inkscape:window-maximized="1"
     inkscape:current-layer="Capa_1" /><g
     id="g4550"
     transform="matrix(0.52788045,0,0,0.52788045,-13.080157,11.553901)"
     style="fill:#ffffff"><g
       transform="matrix(0.09374993,0,0,0.09374993,38.666066,-7.99996)"
       style="fill:#ffffff"
       id="g6"><g
         style="fill:#ffffff"
         id="g4"><path
           style="fill:#ffffff"
           inkscape:connector-curvature="0"
           id="path2"
           d="M 256,0 C 136.384,0 42.667,42.176 42.667,96 c 0,53.824 93.717,96 213.333,96 119.616,0 213.333,-42.176 213.333,-96 C 469.333,42.176 375.616,0 256,0 Z m 0,170.667 C 142.848,170.667 64,131.307 64,96 64,60.693 142.848,21.333 256,21.333 c 113.152,0 192,39.36 192,74.667 0,35.307 -78.848,74.667 -192,74.667 z" /></g></g><g
       transform="matrix(0.09374993,0,0,0.09374993,38.666066,-7.99996)"
       style="fill:#ffffff"
       id="g12"><g
         style="fill:#ffffff"
         id="g10"><path
           style="fill:#ffffff"
           inkscape:connector-curvature="0"
           id="path8"
           d="m 458.667,192 c -5.888,0 -10.667,4.779 -10.667,10.667 0,35.307 -78.848,74.667 -192,74.667 -113.152,0 -192,-39.36 -192,-74.667 C 64,196.779 59.221,192 53.333,192 c -5.888,0 -10.667,4.779 -10.667,10.667 0,53.824 93.717,96 213.333,96 119.616,0 213.333,-42.176 213.333,-96 C 469.333,196.779 464.555,192 458.667,192 Z" /></g></g><g
       transform="matrix(0.09374993,0,0,0.09374993,38.666066,-7.99996)"
       style="fill:#ffffff"
       id="g18"><g
         style="fill:#ffffff"
         id="g16"><path
           style="fill:#ffffff"
           inkscape:connector-curvature="0"
           id="path14"
           d="M 458.667,298.667 C 452.779,298.667 448,303.446 448,309.334 448,344.64 369.152,384 256,384 142.848,384 64,344.64 64,309.333 c 0,-5.888 -4.779,-10.667 -10.667,-10.667 -5.888,0 -10.667,4.779 -10.667,10.667 0,53.824 93.717,96 213.333,96 119.616,0 213.333,-42.176 213.333,-96 0.001,-5.888 -4.777,-10.666 -10.665,-10.666 z" /></g></g><g
       transform="matrix(0.09374993,0,0,0.09374993,38.666066,-7.99996)"
       style="fill:#ffffff"
       id="g24"><g
         style="fill:#ffffff"
         id="g22"><path
           style="fill:#ffffff"
           inkscape:connector-curvature="0"
           id="path20"
           d="M 458.667,85.333 C 452.779,85.333 448,90.112 448,96 v 320 c 0,35.307 -78.848,74.667 -192,74.667 C 142.848,490.667 64,451.307 64,416 V 96 C 64,90.112 59.221,85.333 53.333,85.333 47.445,85.333 42.667,90.112 42.667,96 v 320 c 0,53.824 93.717,96 213.333,96 119.616,0 213.333,-42.176 213.333,-96 V 96 c 0,-5.888 -4.778,-10.667 -10.666,-10.667 z" /></g></g></g><g
     id="g26"
     transform="translate(0,-472)" /><g
     id="g28"
     transform="translate(0,-472)" /><g
     id="g30"
     transform="translate(0,-472)" /><g
     id="g32"
     transform="translate(0,-472)" /><g
     id="g34"
     transform="translate(0,-472)" /><g
     id="g36"
     transform="translate(0,-472)" /><g
     id="g38"
     transform="translate(0,-472)" /><g
     id="g40"
     transform="translate(0,-472)" /><g
     id="g42"
     transform="translate(0,-472)" /><g
     id="g44"
     transform="translate(0,-472)" /><g
     id="g46"
     transform="translate(0,-472)" /><g
     id="g48"
     transform="translate(0,-472)" /><g
     id="g50"
     transform="translate(0,-472)" /><g
     id="g52"
     transform="translate(0,-472)" /><g
     id="g54"
     transform="translate(0,-472)" /></svg>