<?xml version="1.0" encoding="UTF-8" standalone="no"?>
<!-- Generator: Adobe Illustrator 19.0.0, SVG Export Plug-In . SVG Version: 6.00 Build 0)  -->

<svg
   xmlns:dc="http://purl.org/dc/elements/1.1/"
   xmlns:cc="http://creativecommons.org/ns#"
   xmlns:rdf="http://www.w3.org/1999/02/22-rdf-syntax-ns#"
   xmlns:svg="http://www.w3.org/2000/svg"
   xmlns="http://www.w3.org/2000/svg"
   xmlns:sodipodi="http://sodipodi.sourceforge.net/DTD/sodipodi-0.dtd"
   xmlns:inkscape="http://www.inkscape.org/namespaces/inkscape"
   version="1.1"
   id="Capa_1"
   x="0px"
   y="0px"
   viewBox="0 0 480 480"
   style="enable-background:new 0 0 480 480;"
   xml:space="preserve"
   sodipodi:docname="frontend-icon.svg"
   inkscape:version="0.92.1 r15371"><metadata
     id="metadata79"><rdf:RDF><cc:Work
         rdf:about=""><dc:format>image/svg+xml</dc:format><dc:type
           rdf:resource="http://purl.org/dc/dcmitype/StillImage" /><dc:title></dc:title></cc:Work></rdf:RDF></metadata><defs
     id="defs77" /><sodipodi:namedview
     pagecolor="#ffffff"
     bordercolor="#666666"
     borderopacity="1"
     objecttolerance="10"
     gridtolerance="10"
     guidetolerance="10"
     inkscape:pageopacity="0"
     inkscape:pageshadow="2"
     inkscape:window-width="1360"
     inkscape:window-height="705"
     id="namedview75"
     showgrid="false"
     inkscape:zoom="0.49166667"
     inkscape:cx="-29.491525"
     inkscape:cy="240"
     inkscape:window-x="-8"
     inkscape:window-y="-8"
     inkscape:window-maximized="1"
     inkscape:current-layer="Capa_1" /><g
     id="g4578"
     transform="matrix(0.83560473,0,0,0.83560473,39.454855,39.454855)"><g
       style="fill:#ffffff"
       transform="matrix(0.76531943,0,0,0.76531943,56.323338,56.323338)"
       id="g6"><g
         style="fill:#ffffff"
         id="g4"><path
           style="fill:#ffffff"
           inkscape:connector-curvature="0"
           id="path2"
           d="m 456,240 h -8 V 72 C 447.974,49.92 430.08,32.026 408,32 H 72 C 49.92,32.026 32.026,49.92 32,72 V 192 H 24 C 10.745,192 0,202.745 0,216 v 208 c 0,13.255 10.745,24 24,24 h 304 c 4.418,0 8,-3.582 8,-8 -0.026,-22.08 -17.92,-39.974 -40,-40 h -24 v -48 h 96 v 72 c 0,13.255 10.745,24 24,24 h 64 c 13.255,0 24,-10.745 24,-24 V 264 c 0,-13.255 -10.745,-24 -24,-24 z M 176,424 c 0,4.418 -3.582,8 -8,8 H 24 c -4.418,0 -8,-3.582 -8,-8 v -8 h 160 z m 0,-24 H 16 V 216 c 0,-4.418 3.582,-8 8,-8 h 144 c 4.418,0 8,3.582 8,8 z m 120,16 c 10.168,0.012 19.229,6.418 22.632,16 H 190.528 c 0.948,-2.562 1.445,-5.268 1.472,-8 v -8 z M 192,400 v -48 h 16 v 48 z m 32,0 v -48 h 32 v 48 z M 368,336 H 192 v -48 h 176 z m 0,-72 v 8 H 192 v -56 c -0.027,-3.796 -0.966,-7.53 -2.736,-10.888 0.12,-0.112 0.28,-0.144 0.392,-0.264 l 79.2,-79.2 c 3.07,-3.178 2.982,-8.243 -0.196,-11.312 -3.1,-2.994 -8.015,-2.994 -11.116,0 l -79.2,79.2 c -0.192,0.2 -0.272,0.456 -0.44,0.664 C 174.8,192.76 171.421,192.01 168,192 H 48 V 72 C 48,58.745 58.745,48 72,48 h 336 c 13.255,0 24,10.745 24,24 v 168 h -40 c -13.255,0 -24,10.745 -24,24 z m 96,160 c 0,4.418 -3.582,8 -8,8 h -64 c -4.418,0 -8,-3.582 -8,-8 v -8 h 80 z m 0,-24 H 384 V 264 c 0,-4.418 3.582,-8 8,-8 h 64 c 4.418,0 8,3.582 8,8 z" /></g></g><g
       style="fill:#ffffff"
       transform="matrix(0.76531943,0,0,0.76531943,56.323338,56.323338)"
       id="g12"><g
         style="fill:#ffffff"
         id="g10"><path
           style="fill:#ffffff"
           inkscape:connector-curvature="0"
           id="path8"
           d="m 95.592,289.376 c -3.124,-3.123 -8.188,-3.123 -11.312,0 l -33.936,33.936 c -3.178,3.07 -3.266,8.134 -0.196,11.312 3.07,3.178 8.134,3.266 11.312,0.196 0.067,-0.064 0.132,-0.13 0.196,-0.196 l 33.936,-33.936 c 1.428,-2.475 -1.442,-7.18 0,-11.312 z" /></g></g><g
       style="fill:#ffffff"
       transform="matrix(0.76531943,0,0,0.76531943,56.323338,56.323338)"
       id="g18"><g
         style="fill:#ffffff"
         id="g16"><path
           style="fill:#ffffff"
           inkscape:connector-curvature="0"
           id="path14"
           d="m 143.396,289.376 c -3.1,-2.994 -8.015,-2.994 -11.116,0 l -33.936,33.936 c -3.178,3.069 -3.266,8.134 -0.196,11.312 3.069,3.178 8.134,3.266 11.312,0.196 0.067,-0.064 0.132,-0.13 0.196,-0.196 l 33.936,-33.936 c 3.069,-3.178 2.982,-8.243 -0.196,-11.312 z" /></g></g><g
       style="fill:#ffffff"
       transform="matrix(0.76531943,0,0,0.76531943,56.323338,56.323338)"
       id="g24"><g
         style="fill:#ffffff"
         id="g22"><path
           style="fill:#ffffff"
           inkscape:connector-curvature="0"
           id="path20"
           d="m 317.46,114.344 c -3.1,-2.994 -8.015,-2.994 -11.116,0 l -79.2,79.2 c -3.178,3.069 -3.266,8.134 -0.197,11.312 3.069,3.178 8.134,3.266 11.312,0.197 0.067,-0.064 0.132,-0.13 0.197,-0.197 l 79.2,-79.2 c 3.07,-3.178 2.982,-8.243 -0.196,-11.312 z" /></g></g><g
       style="fill:#ffffff"
       transform="matrix(0.76531943,0,0,0.76531943,56.323338,56.323338)"
       id="g30"><g
         style="fill:#ffffff"
         id="g28"><path
           style="fill:#ffffff"
           inkscape:connector-curvature="0"
           id="path26"
           d="m 440.772,311.032 c -3.1,-2.995 -8.016,-2.995 -11.116,0 l -22.624,22.624 c -3.178,3.07 -3.266,8.134 -0.196,11.312 3.07,3.178 8.134,3.266 11.312,0.196 0.066,-0.064 0.132,-0.13 0.196,-0.196 l 22.624,-22.624 c 3.07,-3.178 2.982,-8.242 -0.196,-11.312 z" /></g></g><g
       style="fill:#ffffff"
       transform="matrix(0.76531943,0,0,0.76531943,56.323338,56.323338)"
       id="g36"><g
         style="fill:#ffffff"
         id="g34"><path
           style="fill:#ffffff"
           inkscape:connector-curvature="0"
           id="path32"
           d="m 240.16,304 h -0.08 c -4.418,0.022 -7.982,3.622 -7.96,8.04 0.022,4.418 3.622,7.982 8.04,7.96 4.418,0 8,-3.582 8,-8 0,-4.418 -3.582,-8 -8,-8 z" /></g></g><g
       style="fill:#ffffff"
       transform="matrix(0.76531943,0,0,0.76531943,56.323338,56.323338)"
       id="g42"><g
         style="fill:#ffffff"
         id="g40"><path
           style="fill:#ffffff"
           inkscape:connector-curvature="0"
           id="path38"
           d="m 256,64 h -32 c -4.418,0 -8,3.582 -8,8 0,4.418 3.582,8 8,8 h 32 c 4.418,0 8,-3.582 8,-8 0,-4.418 -3.582,-8 -8,-8 z" /></g></g></g><g
     id="g44" /><g
     id="g46" /><g
     id="g48" /><g
     id="g50" /><g
     id="g52" /><g
     id="g54" /><g
     id="g56" /><g
     id="g58" /><g
     id="g60" /><g
     id="g62" /><g
     id="g64" /><g
     id="g66" /><g
     id="g68" /><g
     id="g70" /><g
     id="g72" /></svg>