<?xml version="1.0" encoding="UTF-8" standalone="no"?>
<svg
   xmlns:dc="http://purl.org/dc/elements/1.1/"
   xmlns:cc="http://creativecommons.org/ns#"
   xmlns:rdf="http://www.w3.org/1999/02/22-rdf-syntax-ns#"
   xmlns:svg="http://www.w3.org/2000/svg"
   xmlns="http://www.w3.org/2000/svg"
   xmlns:sodipodi="http://sodipodi.sourceforge.net/DTD/sodipodi-0.dtd"
   xmlns:inkscape="http://www.inkscape.org/namespaces/inkscape"
   id="Layer_1_1_"
   enable-background="new 0 0 64 64"
   height="512"
   viewBox="0 0 64 64"
   width="512"
   version="1.1"
   sodipodi:docname="others-skills-icon.svg"
   inkscape:version="0.92.1 r15371">
  <metadata
     id="metadata33">
    <rdf:RDF>
      <cc:Work
         rdf:about="">
        <dc:format>image/svg+xml</dc:format>
        <dc:type
           rdf:resource="http://purl.org/dc/dcmitype/StillImage" />
        <dc:title></dc:title>
      </cc:Work>
    </rdf:RDF>
  </metadata>
  <defs
     id="defs31" />
  <sodipodi:namedview
     pagecolor="#ffffff"
     bordercolor="#666666"
     borderopacity="1"
     objecttolerance="10"
     gridtolerance="10"
     guidetolerance="10"
     inkscape:pageopacity="0"
     inkscape:pageshadow="2"
     inkscape:window-width="1360"
     inkscape:window-height="705"
     id="namedview29"
     showgrid="false"
     inkscape:zoom="0.4609375"
     inkscape:cx="-31.457627"
     inkscape:cy="256"
     inkscape:window-x="-8"
     inkscape:window-y="-8"
     inkscape:window-maximized="1"
     inkscape:current-layer="Layer_1_1_" />
  <g
     id="g4523"
     style="fill:#ffffff"
     transform="matrix(0.79065273,0,0,0.79065273,6.5947115,6.6988504)">
    <path
       id="path2"
       d="m 13,61 c 0,0.55225 0.44727,1 1,1 h 25 c 0.55273,0 1,-0.44775 1,-1 v -4 h 12 c 0.55273,0 1,-0.44775 1,-1 V 44 h 6 c 0.30176,0 0.58789,-0.13623 0.77734,-0.37109 0.19043,-0.23486 0.26367,-0.54297 0.2002,-0.83838 L 57,28.89307 C 56.96973,21.26172 53.69336,13.97119 48.00098,8.87598 42.20313,3.68604 34.71192,1.30567 26.91309,2.17188 14.38965,3.56299 4.39062,13.68066 3.13867,26.22949 2.48535,32.77392 4.20117,39.30078 7.97168,44.60742 11.26172,49.2373 13,54.90576 13,61 Z M 5.12891,26.42822 C 6.28809,14.8125 15.54199,5.44727 27.13379,4.15918 34.36524,3.35938 41.29883,5.56104 46.66699,10.36621 51.96289,15.10645 55,21.89795 55,29 c 0,0.07031 0.0078,0.14062 0.02246,0.20947 L 57.7627,42 H 52 c -0.55273,0 -1,0.44775 -1,1 V 55 H 39 35 v 2 h 3 v 3 H 14.98535 C 14.80371,53.86768 12.95215,48.16406 9.60254,43.44922 6.1123,38.53662 4.52344,32.4917 5.12891,26.42822 Z"
       inkscape:connector-curvature="0"
       style="fill:#ffffff" />
    <path
       id="path4"
       d="m 35.82715,30.72412 -0.74316,-1.77588 c 0.16016,-0.3291 0.30176,-0.67139 0.42285,-1.02393 l 1.78418,-0.73193 C 37.62403,27.05566 37.85743,26.75 37.90332,26.39306 37.96973,25.87158 38,25.4292 38,25 c 0,-0.4292 -0.03027,-0.87158 -0.09668,-1.39307 -0.0459,-0.35693 -0.2793,-0.6626 -0.6123,-0.79932 l -1.78418,-0.73193 c -0.12109,-0.35205 -0.26172,-0.69434 -0.42188,-1.02393 l 0.74219,-1.77588 c 0.13867,-0.33252 0.08789,-0.71338 -0.13281,-0.99805 -0.57129,-0.73828 -1.23438,-1.40186 -1.97168,-1.97266 -0.28516,-0.22168 -0.66797,-0.27051 -0.99805,-0.13232 l -1.77637,0.74268 C 30.61816,16.75536 30.27636,16.61425 29.9248,16.49364 l -0.73242,-1.78418 c -0.13672,-0.3335 -0.44141,-0.56738 -0.79883,-0.61279 -1.04297,-0.13184 -1.74414,-0.13184 -2.78711,0 -0.35742,0.04541 -0.66211,0.2793 -0.79883,0.61279 l -0.73242,1.78418 c -0.35156,0.12061 -0.69336,0.26172 -1.02344,0.42188 l -1.77637,-0.74268 c -0.33105,-0.13818 -0.71387,-0.08936 -0.99805,0.13232 -0.7373,0.57129 -1.40039,1.23438 -1.97168,1.97168 -0.2207,0.28467 -0.27148,0.66602 -0.13281,0.99854 l 0.74316,1.77588 c -0.16016,0.32959 -0.30176,0.67188 -0.42285,1.02441 l -1.78418,0.73193 c -0.33301,0.13672 -0.56641,0.44238 -0.6123,0.79932 C 16.03027,24.12842 16,24.5708 16,25 c 0,0.4292 0.03027,0.87158 0.09668,1.39307 0.0459,0.35693 0.2793,0.6626 0.6123,0.79932 l 1.78418,0.73193 c 0.12109,0.35205 0.26172,0.69434 0.42188,1.02393 l -0.74219,1.77588 c -0.13867,0.33252 -0.08789,0.71338 0.13281,0.99805 0.57129,0.73828 1.23438,1.40186 1.97168,1.97266 0.28418,0.22119 0.66699,0.27002 0.99805,0.13232 l 1.77637,-0.74268 c 0.33008,0.16016 0.67188,0.30127 1.02344,0.42188 l 0.73242,1.78418 c 0.13672,0.3335 0.44141,0.56738 0.79883,0.61279 C 26.12793,35.96924 26.57031,36 27,36 c 0.42969,0 0.87207,-0.03076 1.39355,-0.09668 0.35742,-0.04541 0.66211,-0.2793 0.79883,-0.61279 l 0.73242,-1.78418 c 0.35254,-0.12061 0.69434,-0.26172 1.02344,-0.42188 l 1.77637,0.74268 c 0.33008,0.1377 0.71289,0.08887 0.99805,-0.13232 0.7373,-0.5708 1.40039,-1.23438 1.97168,-1.97266 0.2207,-0.28467 0.27148,-0.66602 0.13281,-0.99805 z M 34.3125,26.25195 c -0.28418,0.1167 -0.49902,0.35742 -0.58203,0.65283 -0.15234,0.53516 -0.36133,1.04248 -0.62207,1.50684 -0.15039,0.26855 -0.16895,0.5918 -0.05078,0.87549 l 0.69141,1.65186 c -0.25293,0.28711 -0.52344,0.55762 -0.80957,0.81006 l -1.65234,-0.69092 c -0.28418,-0.11816 -0.60645,-0.1001 -0.875,0.05078 -0.46484,0.26074 -0.97168,0.46973 -1.50684,0.62158 -0.2959,0.0835 -0.53613,0.29834 -0.65234,0.58252 l -0.68359,1.66504 c -0.40039,0.0293 -0.73828,0.0293 -1.13867,0 L 25.74709,32.31299 C 25.63088,32.02881 25.39064,31.81397 25.09475,31.73047 24.56155,31.5791 24.05471,31.36963 23.58694,31.1084 23.31741,30.95899 22.9971,30.93994 22.71292,31.05811 l -1.65234,0.69092 c -0.28613,-0.25244 -0.55664,-0.52344 -0.80957,-0.81006 l 0.69043,-1.65186 c 0.11816,-0.28369 0.09961,-0.60596 -0.0498,-0.87402 -0.26172,-0.46631 -0.4707,-0.97363 -0.62207,-1.5083 -0.08301,-0.29541 -0.29785,-0.53613 -0.58203,-0.65283 L 18.0225,25.56885 C 18.00684,25.36865 18,25.18164 18,25 c 0,-0.18164 0.0068,-0.36865 0.02246,-0.56885 l 1.66504,-0.68311 c 0.28418,-0.1167 0.49902,-0.35742 0.58203,-0.65283 0.15234,-0.53516 0.36133,-1.04248 0.62207,-1.50684 0.15039,-0.26855 0.16895,-0.59131 0.05078,-0.87549 l -0.69141,-1.65234 c 0.25293,-0.28662 0.52344,-0.55713 0.80957,-0.80957 l 1.65234,0.69092 c 0.28418,0.11816 0.60449,0.09912 0.87402,-0.05029 0.46777,-0.26123 0.97461,-0.4707 1.50781,-0.62207 0.2959,-0.0835 0.53613,-0.29834 0.65234,-0.58252 l 0.68359,-1.66504 c 0.40039,-0.0293 0.73828,-0.0293 1.13867,0 l 0.68359,1.66504 c 0.11621,0.28418 0.35645,0.49902 0.65234,0.58252 0.5332,0.15137 1.04004,0.36084 1.50781,0.62207 0.26758,0.14941 0.58984,0.16846 0.87402,0.05029 l 1.65234,-0.69092 c 0.28613,0.25244 0.55664,0.52344 0.80957,0.81006 l -0.69043,1.65186 c -0.11816,0.28369 -0.09961,0.60596 0.0498,0.87402 0.26172,0.46631 0.4707,0.97363 0.62207,1.5083 0.08301,0.29541 0.29785,0.53613 0.58203,0.65283 l 1.66504,0.68311 C 35.99316,24.63135 36,24.81836 36,25 c 0,0.18164 -0.0068,0.36865 -0.02246,0.56885 z"
       inkscape:connector-curvature="0"
       style="fill:#ffffff" />
    <path
       id="path6"
       d="m 27,20 c -2.75684,0 -5,2.24316 -5,5 0,2.75684 2.24316,5 5,5 2.75684,0 5,-2.24316 5,-5 0,-2.75684 -2.24316,-5 -5,-5 z m 0,8 c -1.6543,0 -3,-1.3457 -3,-3 0,-1.6543 1.3457,-3 3,-3 1.6543,0 3,1.3457 3,3 0,1.6543 -1.3457,3 -3,3 z"
       inkscape:connector-curvature="0"
       style="fill:#ffffff" />
    <path
       id="path8"
       d="m 35.29883,36.27734 1.1875,1.60938 c 1.14453,-0.84375 2.17285,-1.83691 3.05762,-2.95264 l -1.56641,-1.24316 c -0.77539,0.97754 -1.67676,1.84765 -2.67871,2.58642 z"
       inkscape:connector-curvature="0"
       style="fill:#ffffff" />
    <path
       id="path10"
       d="m 12.75098,32.28271 1.7793,-0.91211 C 14.09962,30.5288 13.75391,29.64208 13.50294,28.73388 13.16895,27.5249 13,26.26855 13,25 13,17.28027 19.28027,11 27,11 h 7.58594 l -1.29297,1.29297 1.41406,1.41406 3,-3 c 0.39062,-0.39062 0.39062,-1.02344 0,-1.41406 l -3,-3 L 33.29297,7.70703 34.58594,9 H 27 c -8.82227,0 -16,7.17773 -16,16 0,1.44824 0.19336,2.88379 0.5752,4.26611 0.2871,1.03907 0.68261,2.05371 1.17578,3.0166 z"
       inkscape:connector-curvature="0"
       style="fill:#ffffff" />
    <path
       id="path12"
       d="m 42.4248,29.26611 -1.92773,-0.53223 c -0.33105,1.2002 -0.82324,2.35107 -1.46094,3.42139 l 1.7168,1.02441 c 0.73047,-1.22363 1.29297,-2.54052 1.67187,-3.91357 z"
       inkscape:connector-curvature="0"
       style="fill:#ffffff" />
    <path
       id="path14"
       d="m 15.48926,32.97021 -1.64453,1.13965 c 0.81055,1.16846 1.77344,2.22559 2.86426,3.14258 l 1.28711,-1.53125 c -0.95508,-0.80273 -1.79883,-1.72803 -2.50684,-2.75098 z"
       inkscape:connector-curvature="0"
       style="fill:#ffffff" />
    <path
       id="path16"
       d="m 30.25586,38.61963 0.46289,1.94531 c 1.38477,-0.3291 2.71973,-0.84424 3.9707,-1.53076 l -0.96289,-1.75293 c -1.09277,0.6001 -2.26074,1.05029 -3.4707,1.33838 z"
       inkscape:connector-curvature="0"
       style="fill:#ffffff" />
    <path
       id="path18"
       d="m 18.42871,38.51221 c 1.20312,0.76514 2.50293,1.36523 3.86328,1.78369 l 0.58789,-1.91211 c -1.18945,-0.36523 -2.3252,-0.89014 -3.37695,-1.55908 z"
       inkscape:connector-curvature="0"
       style="fill:#ffffff" />
    <path
       id="path20"
       d="M 28.61816,40.91943 28.41699,38.9292 C 27.95215,38.97607 27.48047,39 27.0127,39 26.23633,39.03662 25.45606,38.93701 24.69629,38.81152 l -0.32617,1.97266 c 0.86816,0.14355 1.79492,0.2041 2.64355,0.21582 0.53321,0 1.07227,-0.02734 1.60449,-0.08057 z"
       inkscape:connector-curvature="0"
       style="fill:#ffffff" />
    <path
       id="path22"
       d="m 23,55 h 2 v 2 h -2 z"
       inkscape:connector-curvature="0"
       style="fill:#ffffff" />
    <path
       id="path24"
       d="m 27,55 h 2 v 2 h -2 z"
       inkscape:connector-curvature="0"
       style="fill:#ffffff" />
    <path
       id="path26"
       d="m 31,55 h 2 v 2 h -2 z"
       inkscape:connector-curvature="0"
       style="fill:#ffffff" />
  </g>
</svg>
