<?xml version="1.0" standalone="no"?>
<!DOCTYPE svg PUBLIC "-//W3C//DTD SVG 20010904//EN"
 "http://www.w3.org/TR/2001/REC-SVG-20010904/DTD/svg10.dtd">
<svg version="1.0" xmlns="http://www.w3.org/2000/svg"
 width="700.000000pt" height="700.000000pt" viewBox="0 0 700.000000 700.000000"
 preserveAspectRatio="xMidYMid meet">
<metadata>
Created by potrace 1.11, written by Peter Selinger 2001-2013
</metadata>
<g transform="translate(0.000000,700.000000) scale(0.100000,-0.100000)"
fill="#000000" stroke="none">
<path d="M3437 6874 c-1 -1 -42 -4 -92 -7 -474 -31 -843 -242 -1112 -635 -13
-18 -23 -35 -23 -38 0 -3 -11 -20 -23 -37 -35 -47 -119 -217 -167 -337 -126
-313 -223 -685 -339 -1295 -12 -60 -26 -130 -31 -155 -5 -25 -12 -58 -15 -75
-12 -72 -30 -165 -39 -205 -7 -30 -15 -74 -21 -115 -3 -16 -9 -43 -13 -59 l-8
-29 -179 -1 c-174 -2 -182 -3 -235 -29 -64 -32 -85 -49 -123 -98 -55 -73 -59
-99 -60 -414 l-2 -290 -105 -175 c-58 -96 -115 -190 -126 -210 -12 -19 -72
-116 -135 -215 -427 -682 -524 -883 -573 -1200 -16 -104 -15 -317 3 -390 23
-96 89 -213 162 -284 133 -132 347 -214 614 -237 39 -3 86 -7 105 -9 19 -2 45
-4 57 -4 14 -1 24 -11 31 -29 18 -51 87 -117 154 -147 l63 -29 2280 1 c1254 0
2294 3 2310 5 77 14 161 75 202 146 14 26 28 48 29 50 1 2 28 5 61 7 96 7 187
15 213 20 86 17 136 27 145 29 152 40 283 107 367 188 138 134 191 284 183
523 -10 356 -119 619 -510 1242 -59 92 -113 175 -121 183 -9 10 -35 15 -71 16
l-56 1 -96 158 -96 158 -1 387 c-1 281 -5 397 -14 426 -19 58 -60 117 -108
154 -71 54 -109 63 -292 66 -91 1 -170 3 -177 3 -6 1 -14 13 -17 29 -3 15 -19
101 -36 192 -17 91 -37 197 -45 235 -8 39 -26 131 -40 205 -44 234 -133 637
-166 754 -6 21 -12 46 -14 55 -8 40 -79 263 -116 364 -75 206 -199 444 -306
585 -118 156 -159 181 -232 142 -18 -9 -29 -4 -75 32 -52 41 -55 45 -50 80 10
70 -15 100 -129 156 -129 63 -277 111 -389 128 -16 2 -43 6 -60 9 -70 11 -333
26 -341 19z"/>
</g>
</svg>
